<svg xmlns="http://www.w3.org/2000/svg" width="928" height="1130" viewBox="0 0 928 1130">
<g>
<path d="M 446.50 791.95 C362.47,798.20 278.02,772.16 210.50,719.18 C206.65,716.16 203.14,713.38 202.70,712.99 C202.26,712.61 202.60,699.07 203.46,682.90 C205.53,644.02 209.80,559.86 210.53,543.50 C213.12,485.67 215.09,463.29 219.11,446.03 C223.99,425.10 232.41,416.00 241.42,421.94 C248.11,426.35 256.28,440.25 262.32,457.50 C265.47,466.50 273.93,489.57 288.16,528.00 C290.91,535.42 294.43,545.10 295.98,549.50 C297.53,553.90 302.71,568.08 307.49,581.00 C312.27,593.92 318.11,609.90 320.47,616.50 C325.16,629.59 330.48,644.06 335.15,656.41 C336.80,660.76 340.64,671.34 343.68,679.91 C354.58,710.67 364.40,723.89 376.43,723.98 C384.34,724.04 396.14,713.49 403.88,699.44 C408.95,690.24 410.07,688.34 453.53,615.62 C488.09,557.77 493.60,549.93 502.50,545.87 C507.49,543.59 514.14,543.50 518.63,545.63 C524.37,548.35 528.62,554.55 538.42,574.46 C543.57,584.93 561.42,620.95 578.09,654.50 C608.22,715.17 608.39,715.54 608.80,722.76 C609.16,729.05 608.87,730.74 606.64,735.31 C604.28,740.13 603.22,741.06 594.28,746.22 C564.63,763.29 531.66,776.68 515.94,778.03 C510.23,778.52 505.24,779.67 500.94,781.48 C497.40,782.97 492.91,784.79 490.97,785.51 C485.95,787.40 462.93,790.73 446.50,791.95 ZM 414.59 543.11 C407.07,547.69 399.98,543.45 392.65,530.00 C388.48,522.34 387.52,519.40 366.50,449.50 C357.89,420.86 342.25,372.81 332.65,345.50 C330.71,340.00 328.87,333.48 328.55,331.00 C327.98,326.60 328.06,326.43 332.23,323.52 C335.23,321.42 337.46,320.61 339.74,320.80 C341.52,320.94 344.22,320.43 345.74,319.65 C347.26,318.87 350.50,317.90 352.95,317.50 C355.40,317.09 359.10,315.87 361.16,314.80 C363.23,313.72 367.68,312.20 371.07,311.41 C374.45,310.62 378.36,309.08 379.75,307.99 C381.13,306.89 383.67,305.99 385.38,305.99 C387.10,305.98 391.11,304.65 394.29,303.04 C397.48,301.42 400.66,300.31 401.35,300.58 C402.81,301.14 409.57,298.51 410.49,297.02 C410.84,296.46 412.48,296.00 414.15,296.00 C415.82,296.00 418.28,295.14 419.61,294.09 C420.95,293.04 424.26,291.88 426.97,291.50 C429.68,291.13 432.89,289.97 434.10,288.91 C435.31,287.86 437.08,287.00 438.03,287.00 C438.98,287.00 441.50,286.23 443.63,285.28 C447.96,283.36 448.29,283.28 452.50,283.11 C454.29,283.04 456.69,281.88 458.44,280.22 C460.75,278.04 462.11,277.53 464.78,277.84 C467.17,278.12 469.06,277.59 471.12,276.07 C472.74,274.88 477.53,272.79 481.78,271.43 C486.03,270.07 490.46,268.47 491.62,267.88 C493.16,267.09 494.34,267.11 495.88,267.93 C498.27,269.21 500.42,268.40 503.42,265.09 C504.69,263.68 506.53,263.00 509.03,263.00 C511.09,263.00 513.30,262.34 513.98,261.53 C514.65,260.72 519.09,258.85 523.85,257.36 C528.61,255.88 533.17,254.14 534.00,253.50 C535.64,252.24 544.82,250.00 548.38,250.00 C549.60,250.00 552.41,248.67 554.62,247.05 C558.36,244.30 563.20,242.56 570.50,241.33 C572.15,241.06 574.92,240.19 576.65,239.42 C578.38,238.64 580.30,238.00 580.90,238.00 C581.51,238.00 582.00,237.61 582.00,237.14 C582.00,236.67 584.36,236.00 587.25,235.66 C590.14,235.32 593.75,234.86 595.29,234.65 C597.74,234.31 598.65,235.06 602.79,240.76 C605.38,244.33 608.94,249.11 610.71,251.38 C619.74,262.99 632.90,289.77 639.95,310.86 C659.53,369.44 659.53,432.21 639.94,492.61 C634.87,508.23 632.68,512.73 629.45,514.21 C627.33,515.17 626.61,514.98 624.40,512.92 C620.38,509.16 619.17,506.03 616.04,491.25 C612.87,476.32 608.29,455.04 605.00,440.00 C603.85,434.77 602.06,426.45 601.02,421.50 C599.04,412.14 589.68,368.63 585.53,349.50 C582.86,337.24 581.80,332.20 579.41,320.50 C578.51,316.10 576.54,309.77 575.03,306.44 C570.13,295.58 563.79,293.23 555.83,299.30 C549.62,304.03 545.19,310.93 527.76,343.00 C519.23,358.67 504.93,385.00 495.96,401.50 C487.00,418.00 474.74,440.50 468.72,451.50 C462.70,462.50 450.34,485.23 441.26,502.00 C424.44,533.05 420.09,539.76 414.59,543.11 ZM 674.59 677.56 C667.07,680.97 664.83,681.31 662.14,679.40 C659.99,677.88 659.83,677.18 660.22,671.12 C660.76,662.86 665.06,651.76 670.44,644.71 C676.94,636.21 689.46,615.74 695.89,603.14 C705.89,583.53 713.85,562.72 719.85,540.50 C746.97,440.15 726.96,325.73 668.11,244.50 C634.26,197.79 588.06,163.64 539.50,149.43 C521.49,144.16 517.31,143.13 506.75,141.36 C500.84,140.37 496.00,139.21 496.00,138.78 C496.00,138.35 494.99,138.00 493.75,137.99 C492.51,137.99 490.32,137.37 488.87,136.62 C483.74,133.94 470.19,129.92 457.43,127.30 C445.49,124.84 442.59,124.64 419.50,124.61 C391.81,124.58 381.15,125.66 351.50,131.53 C287.22,144.24 225.65,174.72 201.24,205.89 C183.46,228.60 169.34,263.01 155.66,317.00 C141.51,372.78 128.89,446.67 118.50,534.50 C117.66,541.65 116.53,551.10 116.01,555.50 C115.48,559.90 114.59,568.45 114.02,574.50 C113.45,580.55 112.71,587.28 112.37,589.46 L 111.75 593.41 L 109.82 589.64 C106.45,583.07 98.13,560.48 94.02,546.74 C80.97,503.08 77.09,450.62 83.50,404.50 C93.99,328.97 126.73,263.10 180.44,209.46 C209.56,180.38 238.89,159.45 274.33,142.48 C324.67,118.37 376.28,107.63 433.50,109.36 C484.32,110.90 529.11,122.11 574.21,144.58 C677.99,196.30 748.48,297.17 761.43,412.50 C767.46,466.22 760.84,519.76 741.83,571.00 C726.19,613.15 689.95,670.60 674.59,677.56 Z" fill="rgb(27,144,70)"/>
<path d="M 505.26 141.11 C500.71,140.39 496.93,140.00 495.44,140.17 C492.76,140.47 493.38,141.04 502.50,146.67 C512.60,152.90 516.54,155.66 530.70,166.44 C566.67,193.83 594.83,224.29 615.15,257.76 C613.59,255.32 612.10,253.17 610.71,251.38 C608.94,249.11 605.38,244.33 602.79,240.76 C598.65,235.06 597.74,234.31 595.29,234.65 C593.75,234.86 590.14,235.32 587.25,235.66 C584.36,236.00 582.00,236.67 582.00,237.14 C582.00,237.61 581.51,238.00 580.90,238.00 C580.30,238.00 578.38,238.64 576.65,239.42 C574.92,240.19 572.15,241.06 570.50,241.33 C563.20,242.56 558.36,244.30 554.62,247.05 C552.41,248.67 549.60,250.00 548.38,250.00 C544.82,250.00 535.64,252.24 534.00,253.50 C533.17,254.14 528.61,255.88 523.85,257.36 C519.09,258.85 514.65,260.72 513.98,261.53 C513.30,262.34 511.09,263.00 509.03,263.00 C506.53,263.00 504.69,263.68 503.42,265.09 C500.42,268.40 498.27,269.21 495.88,267.93 C494.34,267.11 493.16,267.09 491.62,267.88 C490.46,268.47 486.03,270.07 481.78,271.43 C477.53,272.79 472.74,274.88 471.12,276.07 C469.06,277.59 467.17,278.12 464.78,277.84 C462.11,277.53 460.75,278.04 458.44,280.22 C456.69,281.88 454.29,283.04 452.50,283.11 C448.29,283.28 447.96,283.36 443.63,285.28 C441.50,286.23 438.98,287.00 438.03,287.00 C437.08,287.00 435.31,287.86 434.10,288.91 C432.89,289.97 429.68,291.13 426.97,291.50 C424.26,291.88 420.95,293.04 419.61,294.09 C418.28,295.14 415.82,296.00 414.15,296.00 C412.48,296.00 410.84,296.46 410.49,297.02 C409.57,298.51 402.81,301.14 401.35,300.58 C400.66,300.31 397.48,301.42 394.29,303.04 C391.11,304.65 387.10,305.98 385.38,305.99 C383.67,305.99 381.13,306.89 379.75,307.99 C378.36,309.08 374.45,310.62 371.07,311.41 C367.68,312.20 363.23,313.72 361.16,314.80 C359.10,315.87 355.40,317.09 352.95,317.50 C350.50,317.90 347.26,318.87 345.74,319.65 C344.22,320.43 341.52,320.94 339.74,320.80 C337.46,320.61 335.23,321.42 332.23,323.52 C328.06,326.43 327.98,326.60 328.55,331.00 C328.87,333.48 330.71,340.00 332.65,345.50 C333.34,347.47 334.06,349.54 334.81,351.71 C332.32,344.76 330.57,340.30 329.94,339.49 C329.50,338.93 327.14,333.28 324.69,326.93 C309.21,286.87 288.14,247.63 268.63,222.50 C264.79,217.55 260.80,212.60 259.78,211.50 C251.23,202.33 247.33,195.80 249.38,194.10 C250.43,193.23 251.45,193.35 253.68,194.63 C256.53,196.27 256.67,196.24 259.26,193.65 C261.23,191.68 262.92,191.00 265.84,191.00 C268.91,191.00 270.12,190.46 271.38,188.55 C272.43,186.93 274.27,185.89 276.74,185.51 C278.81,185.19 282.30,184.04 284.50,182.96 C286.70,181.88 290.34,181.00 292.60,181.00 C295.36,181.00 297.25,180.38 298.43,179.08 C299.44,177.96 302.19,176.89 305.08,176.49 C308.40,176.03 310.57,175.09 311.75,173.61 C314.25,170.46 320.31,168.36 329.29,167.54 C336.26,166.90 337.29,166.53 339.15,164.01 C340.84,161.72 342.27,161.07 346.86,160.52 C350.66,160.05 353.32,159.08 355.00,157.53 C356.93,155.76 359.20,155.08 364.94,154.54 C369.04,154.15 373.30,153.20 374.42,152.42 C375.53,151.64 377.24,151.00 378.22,151.00 C379.20,151.00 380.00,150.36 380.00,149.57 C380.00,147.92 383.04,146.70 385.14,147.50 C385.92,147.80 388.09,146.91 389.97,145.52 C391.85,144.13 394.35,143.00 395.52,143.00 C396.70,143.00 399.70,141.97 402.19,140.71 C405.63,138.97 407.14,138.67 408.49,139.46 C409.78,140.22 410.38,140.16 410.71,139.25 C410.96,138.56 412.62,138.00 414.39,138.00 C416.17,138.00 418.49,137.34 419.56,136.53 C420.63,135.72 422.85,135.00 424.50,134.93 C427.19,134.81 427.26,134.73 425.19,134.15 C421.05,132.98 422.84,131.51 429.00,131.00 C432.32,130.73 435.14,130.12 435.27,129.66 C435.40,129.19 433.70,128.19 431.50,127.42 C426.59,125.71 400.47,125.50 386.21,127.06 C329.46,133.25 269.59,153.92 232.00,180.30 C215.76,191.69 205.77,200.08 197.77,210.53 C198.92,208.93 200.07,207.38 201.24,205.89 C225.65,174.72 287.22,144.24 351.50,131.53 C381.15,125.66 391.81,124.58 419.50,124.61 C442.59,124.64 445.49,124.84 457.43,127.30 C470.19,129.92 483.74,133.94 488.87,136.62 C490.32,137.37 492.51,137.99 493.75,137.99 C494.99,138.00 496.00,138.35 496.00,138.78 C496.00,139.17 500.05,140.18 505.26,141.11 ZM 719.85 540.50 C713.85,562.72 705.89,583.53 695.89,603.14 C722.37,551.19 734.16,490.95 731.31,430.98 C733.13,467.85 729.43,505.05 719.85,540.50 ZM 184.21 233.51 C182.93,236.17 181.64,238.99 180.30,242.00 C171.64,261.52 163.40,286.61 155.66,317.00 C164.68,281.42 173.89,254.34 184.21,233.51 ZM 663.14 237.84 C654.64,226.91 645.30,216.58 634.79,206.43 C630.29,202.08 625.82,198.02 621.32,194.21 C636.48,206.86 650.57,221.52 663.14,237.84 ZM 654.33 414.35 C653.15,440.59 648.36,466.65 639.94,492.60 C648.31,466.78 653.11,440.53 654.33,414.35 ZM 414.59 543.11 C415.03,542.84 415.46,542.55 415.89,542.23 C412.60,545.02 409.79,545.42 406.47,544.58 C406.22,544.52 405.96,544.44 405.69,544.33 C408.62,545.37 411.57,544.95 414.59,543.11 ZM 639.84 310.54 C643.85,322.29 647.04,334.36 649.41,346.74 C647.05,334.65 643.90,322.67 639.95,310.86 C639.92,310.75 639.88,310.64 639.84,310.54 ZM 625.82 277.05 C630.27,285.93 634.21,295.01 637.63,304.29 C634.30,295.33 630.14,285.79 625.82,277.05 ZM 548.58 152.33 C545.18,151.18 541.47,150.02 537.26,148.78 C537.98,148.99 538.73,149.21 539.50,149.43 C542.54,150.32 545.56,151.29 548.58,152.33 ZM 584.70 168.75 C581.60,167.01 578.43,165.31 575.16,163.64 C574.60,163.35 574.05,163.07 573.50,162.80 C577.27,164.66 581.00,166.65 584.70,168.75 ZM 391.45 527.73 C391.83,528.49 392.22,529.22 392.65,530.00 C393.42,531.41 394.18,532.72 394.94,533.92 C394.19,532.78 393.47,531.57 392.80,530.32 C392.32,529.43 391.88,528.60 391.45,527.73 ZM 499.92 394.21 C508.74,377.98 520.40,356.52 527.76,343.00 C532.24,334.75 535.87,328.17 538.88,322.86 C535.87,328.17 532.24,334.75 527.76,343.00 C520.28,356.75 508.55,378.34 499.92,394.21 ZM 434.12 515.06 C435.94,511.76 437.97,508.06 440.22,503.91 L 439.90 504.50 C437.82,508.35 435.90,511.86 434.12,515.06 ZM 365.71 446.87 C365.98,447.76 366.24,448.64 366.50,449.50 C370.07,461.38 373.06,471.32 375.59,479.69 C373.06,471.33 370.07,461.38 366.50,449.50 C366.24,448.63 365.97,447.75 365.71,446.87 ZM 516.48 143.19 C515.34,142.95 514.19,142.71 513.04,142.48 C514.20,142.71 515.33,142.94 516.48,143.19 Z" fill="rgb(110,182,135)"/>
<path d="M 0.00 565.00 L 0.00 0.00 L 464.00 0.00 L 928.00 0.00 L 928.00 565.00 L 928.00 1130.00 L 464.00 1130.00 L 0.00 1130.00 L 0.00 565.00 ZM 446.50 791.95 C462.93,790.73 485.95,787.40 490.97,785.51 C492.91,784.79 497.40,782.97 500.94,781.48 C505.24,779.67 510.23,778.52 515.94,778.03 C531.66,776.68 564.63,763.29 594.28,746.22 C603.22,741.06 604.28,740.13 606.64,735.31 C608.87,730.74 609.16,729.05 608.80,722.76 C608.39,715.54 608.22,715.17 578.09,654.50 C561.42,620.95 543.57,584.93 538.42,574.46 C528.62,554.55 524.37,548.35 518.63,545.63 C514.14,543.50 507.49,543.59 502.50,545.87 C493.60,549.93 488.09,557.77 453.53,615.62 C410.07,688.34 408.95,690.24 403.88,699.44 C396.14,713.49 384.34,724.04 376.43,723.98 C364.40,723.89 354.58,710.67 343.68,679.91 C340.64,671.34 336.80,660.76 335.15,656.41 C330.48,644.06 325.16,629.59 320.47,616.50 C318.11,609.90 312.27,593.92 307.49,581.00 C302.71,568.08 297.53,553.90 295.98,549.50 C294.43,545.10 290.91,535.42 288.16,528.00 C273.93,489.57 265.47,466.50 262.32,457.50 C256.28,440.25 248.11,426.35 241.42,421.94 C232.41,416.00 223.99,425.10 219.11,446.03 C215.09,463.29 213.12,485.67 210.53,543.50 C209.80,559.86 205.53,644.02 203.46,682.90 C202.60,699.07 202.26,712.61 202.70,712.99 C203.14,713.38 206.65,716.16 210.50,719.18 C278.02,772.16 362.47,798.20 446.50,791.95 ZM 674.59 677.56 C689.95,670.60 726.19,613.15 741.83,571.00 C760.84,519.76 767.46,466.22 761.43,412.50 C748.48,297.17 677.99,196.30 574.21,144.58 C529.11,122.11 484.32,110.90 433.50,109.36 C376.28,107.63 324.67,118.37 274.33,142.48 C238.89,159.45 209.56,180.38 180.44,209.46 C126.73,263.10 93.99,328.97 83.50,404.50 C77.09,450.62 80.97,503.08 94.02,546.74 C98.13,560.48 106.45,583.07 109.82,589.64 L 111.75 593.41 L 112.37 589.46 C112.71,587.28 113.45,580.55 114.02,574.50 C114.59,568.45 115.48,559.90 116.01,555.50 C116.53,551.10 117.66,541.65 118.50,534.50 C134.82,396.60 155.84,297.11 180.30,242.00 C193.84,211.51 202.84,200.76 232.00,180.30 C269.59,153.92 329.46,133.25 386.21,127.06 C400.47,125.50 426.59,125.71 431.50,127.42 C433.70,128.19 435.40,129.19 435.27,129.66 C435.14,130.12 432.32,130.73 429.00,131.00 C422.84,131.51 421.05,132.98 425.19,134.15 C427.26,134.73 427.19,134.81 424.50,134.93 C422.85,135.00 420.63,135.72 419.56,136.53 C418.49,137.34 416.17,138.00 414.39,138.00 C412.62,138.00 410.96,138.56 410.71,139.25 C410.38,140.16 409.78,140.22 408.49,139.46 C407.14,138.67 405.63,138.97 402.19,140.71 C399.70,141.97 396.70,143.00 395.52,143.00 C394.35,143.00 391.85,144.13 389.97,145.52 C388.09,146.91 385.92,147.80 385.14,147.50 C383.04,146.70 380.00,147.92 380.00,149.57 C380.00,150.36 379.20,151.00 378.22,151.00 C377.24,151.00 375.53,151.64 374.42,152.42 C373.30,153.20 369.04,154.15 364.94,154.54 C359.20,155.08 356.93,155.76 355.00,157.53 C353.32,159.08 350.66,160.05 346.86,160.52 C342.27,161.07 340.84,161.72 339.15,164.01 C337.29,166.53 336.26,166.90 329.29,167.54 C320.31,168.36 314.25,170.46 311.75,173.61 C310.57,175.09 308.40,176.03 305.08,176.49 C302.19,176.89 299.44,177.96 298.43,179.08 C297.25,180.38 295.36,181.00 292.60,181.00 C290.34,181.00 286.70,181.88 284.50,182.96 C282.30,184.04 278.81,185.19 276.74,185.51 C274.27,185.89 272.43,186.93 271.38,188.55 C270.12,190.46 268.91,191.00 265.84,191.00 C262.92,191.00 261.23,191.68 259.26,193.65 C256.67,196.24 256.53,196.27 253.68,194.63 C251.45,193.35 250.43,193.23 249.38,194.10 C247.33,195.80 251.23,202.33 259.78,211.50 C260.80,212.60 264.79,217.55 268.63,222.50 C288.14,247.63 309.21,286.87 324.69,326.93 C327.14,333.28 329.50,338.93 329.94,339.49 C332.45,342.71 352.81,403.97 366.50,449.50 C387.53,519.44 388.43,522.21 392.80,530.32 C396.77,537.70 402.39,543.56 406.47,544.58 C415.19,546.77 420.44,540.48 439.90,504.50 C448.53,488.55 461.25,465.15 468.17,452.50 C475.08,439.85 487.84,416.45 496.50,400.50 C505.17,384.55 519.24,358.67 527.76,343.00 C545.19,310.93 549.62,304.03 555.83,299.30 C563.79,293.23 570.13,295.58 575.03,306.44 C576.54,309.77 578.51,316.10 579.41,320.50 C581.80,332.20 582.86,337.24 585.53,349.50 C589.68,368.63 599.04,412.14 601.02,421.50 C602.06,426.45 603.85,434.77 605.00,440.00 C608.29,455.04 612.87,476.32 616.04,491.25 C619.17,506.03 620.38,509.16 624.40,512.92 C626.61,514.98 627.33,515.17 629.45,514.21 C632.68,512.73 634.87,508.23 639.94,492.61 C654.57,447.51 658.25,402.09 651.02,356.00 C639.40,281.92 599.21,218.61 530.70,166.44 C516.54,155.66 512.60,152.90 502.50,146.67 C493.38,141.04 492.76,140.47 495.44,140.17 C498.91,139.77 514.81,142.46 524.00,145.00 C549.78,152.13 559.67,155.73 575.16,163.64 C597.77,175.18 615.94,188.22 634.79,206.43 C659.61,230.41 677.96,255.40 693.94,286.99 C743.61,385.17 744.37,508.05 695.89,603.14 C689.46,615.74 676.94,636.21 670.44,644.71 C665.06,651.76 660.76,662.86 660.22,671.12 C659.83,677.18 659.99,677.88 662.14,679.40 C664.83,681.31 667.07,680.97 674.59,677.56 Z" fill="rgb(217,52,46)"/>
<path d="M 0.48 1023.50 C0.48,964.65 0.60,940.72 0.75,970.33 C0.90,999.93 0.90,1048.08 0.75,1077.33 C0.60,1106.57 0.48,1082.35 0.48,1023.50 ZM 10.50 1117.75 C10.20,1116.51 10.08,866.42 10.23,562.00 L 10.50 8.50 L 466.25 8.25 L 922.00 8.00 L 921.75 563.75 L 921.50 1119.50 L 466.27 1119.75 L 11.04 1120.00 L 10.50 1117.75 ZM 915.00 1013.00 L 915.00 913.00 L 466.00 913.00 L 17.00 913.00 L 17.00 1013.00 L 17.00 1113.00 L 466.00 1113.00 L 915.00 1113.00 L 915.00 1013.00 ZM 913.42 907.39 C914.86,906.84 915.00,866.57 915.00,460.89 L 915.00 15.00 L 466.00 15.00 L 17.00 15.00 L 17.00 460.93 C17.00,884.78 17.09,906.88 18.75,907.31 C21.41,908.01 911.61,908.09 913.42,907.39 ZM 0.50 450.00 C0.50,202.23 0.61,100.86 0.75,224.75 C0.89,348.64 0.89,551.36 0.75,675.25 C0.61,799.14 0.50,697.78 0.50,450.00 ZM 355.50 1081.54 C339.76,1077.42 328.30,1071.23 317.69,1061.14 C297.66,1042.09 292.51,1016.90 303.48,991.56 C311.33,973.42 330.65,958.57 354.50,952.33 C363.12,950.07 366.65,949.70 380.00,949.64 C399.03,949.55 405.01,950.86 421.00,958.65 C430.96,963.50 433.53,965.29 440.19,972.03 C446.37,978.29 448.75,981.63 452.36,989.15 C458.46,1001.88 458.86,1003.72 455.77,1004.90 C454.43,1005.41 443.66,1006.15 431.84,1006.55 L 410.35 1007.27 L 407.69 1002.73 C401.02,991.35 391.08,986.46 376.10,987.19 C356.73,988.13 344.65,999.40 344.69,1016.50 C344.73,1032.19 354.28,1042.65 371.75,1046.15 C376.78,1047.16 379.22,1047.15 384.25,1046.12 C399.48,1043.01 406.49,1037.04 409.93,1024.26 C410.56,1021.94 411.84,1019.69 412.78,1019.27 C413.73,1018.85 424.29,1018.63 436.25,1018.79 L 458.00 1019.08 L 458.00 1022.41 C458.00,1026.84 453.63,1040.04 449.76,1047.30 C445.83,1054.68 435.68,1065.69 428.30,1070.59 C410.07,1082.69 378.17,1087.49 355.50,1081.54 ZM 674.72 1082.48 C658.92,1079.49 642.36,1071.39 630.57,1060.90 C624.76,1055.73 617.00,1044.23 613.91,1036.21 C610.87,1028.29 610.11,1011.04 612.41,1002.05 C618.45,978.49 639.30,959.46 666.92,952.32 C683.85,947.95 710.96,948.98 724.50,954.51 C755.69,967.27 773.40,991.67 771.65,1019.50 C770.77,1033.42 766.34,1044.56 757.65,1054.69 C746.00,1068.28 732.93,1076.21 714.08,1081.16 C703.92,1083.82 685.12,1084.45 674.72,1082.48 ZM 707.22 1043.08 C725.75,1034.15 731.39,1012.81 718.95,998.68 C712.80,991.69 703.70,987.59 693.37,987.15 C683.22,986.72 676.41,988.56 669.01,993.73 C661.21,999.17 657.82,1005.11 657.23,1014.34 C656.67,1022.98 658.55,1028.28 664.48,1034.85 C672.18,1043.37 679.41,1046.11 693.00,1045.67 C700.38,1045.43 703.55,1044.85 707.22,1043.08 ZM 40.40 1078.89 C39.07,1077.42 38.92,1070.99 39.19,1028.35 L 39.50 979.50 L 42.65 972.85 C46.72,964.27 52.42,958.65 61.34,954.42 C80.03,945.58 101.95,948.46 116.01,961.60 L 121.07 966.34 L 124.78 962.73 C144.24,943.85 180.04,944.97 194.57,964.93 C201.22,974.06 201.50,976.76 201.50,1031.00 L 201.50 1079.50 L 179.73 1079.77 C162.83,1079.98 157.86,1079.76 157.53,1078.77 C157.30,1078.07 156.96,1057.87 156.78,1033.88 C156.52,999.10 156.18,989.92 155.10,988.63 C153.17,986.29 147.71,986.56 145.40,989.10 C143.60,991.09 143.48,993.56 143.21,1034.84 C143.05,1058.84 142.52,1078.88 142.03,1079.37 C141.55,1079.85 132.06,1080.33 120.96,1080.44 C104.92,1080.58 100.48,1080.34 99.38,1079.24 C98.25,1078.11 98.00,1070.04 98.00,1034.36 C98.00,1006.29 97.63,990.18 96.96,988.93 C95.49,986.17 88.96,986.28 86.40,989.10 C84.60,991.09 84.48,993.56 84.21,1034.84 C84.04,1060.74 83.53,1078.87 82.97,1079.43 C82.43,1079.97 73.20,1080.43 61.97,1080.48 C44.38,1080.56 41.74,1080.37 40.40,1078.89 ZM 231.75 1079.92 C230.11,1078.97 230.00,1074.88 230.00,1016.65 C230.00,969.57 230.29,954.11 231.20,953.20 C232.90,951.50 273.10,951.50 274.80,953.20 C276.38,954.78 276.54,1076.12 274.96,1079.07 C273.99,1080.88 272.69,1081.00 253.71,1080.97 C241.85,1080.95 232.78,1080.52 231.75,1079.92 ZM 482.22 1079.82 C481.29,1078.89 481.00,1063.87 481.00,1015.82 L 481.00 953.04 L 483.51 952.41 C484.90,952.06 501.88,951.99 521.26,952.26 C549.61,952.64 557.63,953.06 562.26,954.36 C597.27,964.21 608.80,998.20 584.87,1021.04 C581.37,1024.39 579.00,1027.49 579.00,1028.74 C579.00,1029.89 584.23,1041.43 590.62,1054.38 C597.28,1067.88 601.99,1078.59 601.65,1079.47 C601.15,1080.78 597.92,1081.00 579.19,1081.00 C553.85,1081.00 556.67,1082.19 549.49,1068.50 C546.89,1063.55 542.33,1054.93 539.36,1049.35 L 533.95 1039.20 L 534.22 1022.85 L 534.50 1006.50 L 539.56 1005.99 C545.90,1005.35 549.50,1003.04 550.94,998.68 C553.61,990.60 548.13,986.74 534.69,987.21 L 526.50 987.50 L 526.00 1034.00 L 525.50 1080.50 L 504.47 1080.77 C488.95,1080.97 483.12,1080.72 482.22,1079.82 ZM 792.09 1079.61 C791.21,1078.54 790.98,1066.47 791.20,1031.84 L 791.50 985.50 L 794.40 978.65 C798.63,968.63 806.13,960.94 816.40,956.08 C827.12,951.00 834.92,949.47 849.50,949.62 C863.16,949.75 871.40,951.52 880.25,956.22 C891.48,962.19 899.14,973.97 900.97,988.05 C902.45,999.42 902.30,1078.30 900.80,1079.80 C899.36,1081.24 860.33,1081.50 858.11,1080.09 C856.95,1079.35 856.74,1072.56 856.90,1039.85 C857.00,1018.21 856.65,998.26 856.13,995.53 C854.94,989.32 852.31,987.00 846.45,987.00 C843.31,987.00 841.34,987.67 839.31,989.41 L 836.50 991.83 L 836.00 1036.16 L 835.50 1080.50 L 814.39 1080.77 C797.07,1080.99 793.06,1080.78 792.09,1079.61 ZM 429.00 859.00 C353.78,851.49 286.35,826.64 228.50,785.11 C202.31,766.31 170.16,736.46 151.44,713.57 C101.58,652.60 71.31,583.32 60.96,506.50 C58.24,486.30 57.15,440.08 58.93,419.89 C69.96,294.39 135.35,183.72 239.52,114.26 C286.00,83.28 337.94,62.52 394.00,52.54 C440.42,44.27 505.85,45.72 552.24,56.05 C620.09,71.17 684.08,104.00 734.50,149.58 C746.89,160.78 767.00,181.50 775.67,192.00 C788.28,207.28 790.22,209.84 799.20,223.00 C838.64,280.81 860.82,341.02 868.64,411.50 C870.95,432.34 870.95,473.08 868.64,494.94 C858.51,590.78 816.77,677.22 748.37,744.04 C732.54,759.51 724.41,766.60 710.39,777.18 C651.24,821.83 587.54,847.77 513.00,857.56 C498.66,859.45 443.00,860.40 429.00,859.00 ZM 446.50 791.95 C498.66,788.08 548.17,772.76 594.28,746.21 C603.22,741.06 604.28,740.14 606.64,735.31 C608.87,730.74 609.16,729.05 608.80,722.76 C608.39,715.54 608.22,715.17 578.09,654.50 C561.42,620.95 543.57,584.93 538.42,574.46 C528.62,554.55 524.37,548.35 518.63,545.63 C514.14,543.50 507.49,543.59 502.50,545.87 C493.60,549.93 488.09,557.77 453.53,615.62 C410.07,688.34 408.95,690.24 403.88,699.44 C396.14,713.49 384.34,724.04 376.43,723.98 C364.40,723.89 354.58,710.67 343.68,679.91 C340.64,671.34 336.80,660.76 335.15,656.41 C330.48,644.06 325.16,629.59 320.47,616.50 C318.11,609.90 312.27,593.92 307.49,581.00 C302.71,568.08 297.53,553.90 295.98,549.50 C294.43,545.10 290.91,535.42 288.16,528.00 C273.93,489.57 265.47,466.50 262.32,457.50 C256.28,440.25 248.11,426.35 241.42,421.94 C232.41,416.00 223.99,425.10 219.11,446.03 C215.09,463.29 213.12,485.67 210.53,543.50 C209.80,559.86 205.53,644.02 203.46,682.90 C202.60,699.07 202.26,712.61 202.70,712.99 C203.14,713.38 206.65,716.16 210.50,719.18 C278.02,772.16 362.45,798.19 446.50,791.95 ZM 674.59 677.56 C689.95,670.60 726.19,613.15 741.83,571.00 C760.84,519.76 767.46,466.22 761.43,412.50 C748.48,297.17 677.99,196.30 574.21,144.58 C529.11,122.11 484.32,110.90 433.50,109.36 C376.28,107.63 324.67,118.37 274.33,142.48 C238.89,159.45 209.56,180.38 180.44,209.46 C126.73,263.10 93.99,328.97 83.50,404.50 C77.09,450.62 80.97,503.08 94.02,546.74 C98.13,560.48 106.45,583.07 109.82,589.64 L 111.75 593.41 L 112.37 589.46 C112.71,587.28 113.45,580.55 114.02,574.50 C114.59,568.45 115.48,559.90 116.01,555.50 C116.53,551.10 117.66,541.65 118.50,534.50 C134.82,396.60 155.84,297.11 180.30,242.00 C193.84,211.51 202.84,200.76 232.00,180.30 C269.59,153.92 329.46,133.25 386.21,127.06 C400.47,125.50 426.59,125.71 431.50,127.42 C433.70,128.19 435.40,129.19 435.27,129.66 C435.14,130.12 432.32,130.73 429.00,131.00 C422.84,131.51 421.05,132.98 425.19,134.15 C427.26,134.73 427.19,134.81 424.50,134.93 C422.85,135.00 420.63,135.72 419.56,136.53 C418.49,137.34 416.17,138.00 414.39,138.00 C412.62,138.00 410.96,138.56 410.71,139.25 C410.38,140.16 409.78,140.22 408.49,139.46 C407.14,138.67 405.63,138.97 402.19,140.71 C399.70,141.97 396.70,143.00 395.52,143.00 C394.35,143.00 391.85,144.13 389.97,145.52 C388.09,146.91 385.92,147.80 385.14,147.50 C383.04,146.70 380.00,147.92 380.00,149.57 C380.00,150.36 379.20,151.00 378.22,151.00 C377.24,151.00 375.53,151.64 374.42,152.42 C373.30,153.20 369.04,154.15 364.94,154.54 C359.20,155.08 356.93,155.76 355.00,157.53 C353.32,159.08 350.66,160.05 346.86,160.52 C342.27,161.07 340.84,161.72 339.15,164.01 C337.29,166.53 336.26,166.90 329.29,167.54 C320.31,168.36 314.25,170.46 311.75,173.61 C310.57,175.09 308.40,176.03 305.08,176.49 C302.19,176.89 299.44,177.96 298.43,179.08 C297.25,180.38 295.36,181.00 292.60,181.00 C290.34,181.00 286.70,181.88 284.50,182.96 C282.30,184.04 278.81,185.19 276.74,185.51 C274.27,185.89 272.43,186.93 271.38,188.55 C270.12,190.46 268.91,191.00 265.84,191.00 C262.92,191.00 261.23,191.68 259.26,193.65 C256.67,196.24 256.53,196.27 253.68,194.63 C251.45,193.35 250.43,193.23 249.38,194.10 C247.33,195.80 251.23,202.33 259.78,211.50 C260.80,212.60 264.79,217.55 268.63,222.50 C288.14,247.63 309.21,286.87 324.69,326.93 C327.14,333.28 329.50,338.93 329.94,339.49 C332.45,342.71 352.81,403.97 366.50,449.50 C387.53,519.44 388.43,522.21 392.80,530.32 C396.77,537.70 402.39,543.56 406.47,544.58 C415.19,546.77 420.44,540.48 439.90,504.50 C448.53,488.55 461.25,465.15 468.17,452.50 C475.08,439.85 487.84,416.45 496.50,400.50 C505.17,384.55 519.24,358.67 527.76,343.00 C545.19,310.93 549.62,304.03 555.83,299.30 C563.79,293.23 570.13,295.58 575.03,306.44 C576.54,309.77 578.51,316.10 579.41,320.50 C581.80,332.20 582.86,337.24 585.53,349.50 C589.68,368.63 599.04,412.14 601.02,421.50 C602.06,426.45 603.85,434.77 605.00,440.00 C608.29,455.04 612.87,476.32 616.04,491.25 C619.17,506.03 620.38,509.16 624.40,512.92 C626.61,514.98 627.33,515.17 629.45,514.21 C632.68,512.73 634.87,508.23 639.94,492.61 C654.57,447.51 658.25,402.09 651.02,356.00 C639.40,281.92 599.21,218.61 530.70,166.44 C516.54,155.66 512.60,152.90 502.50,146.67 C493.38,141.04 492.76,140.47 495.44,140.17 C498.91,139.77 514.81,142.46 524.00,145.00 C549.78,152.13 559.67,155.73 575.16,163.64 C597.77,175.18 615.94,188.22 634.79,206.43 C659.61,230.41 677.96,255.40 693.94,286.99 C743.61,385.17 744.37,508.05 695.89,603.14 C689.46,615.74 676.94,636.21 670.44,644.71 C665.06,651.76 660.76,662.86 660.22,671.12 C659.83,677.18 659.99,677.88 662.14,679.40 C664.83,681.31 667.07,680.97 674.59,677.56 Z" fill="rgb(244,215,70)"/>
<path d="M 0.48 1023.50 C0.48,964.65 0.60,940.72 0.75,970.33 C0.90,999.93 0.90,1048.08 0.75,1077.33 C0.60,1106.57 0.48,1082.35 0.48,1023.50 ZM 10.50 1117.75 C10.20,1116.51 10.08,866.42 10.23,562.00 L 10.50 8.50 L 466.25 8.25 L 922.00 8.00 L 921.75 563.75 L 921.50 1119.50 L 466.27 1119.75 L 11.04 1120.00 L 10.50 1117.75 ZM 915.00 1013.00 L 915.00 913.00 L 466.00 913.00 L 17.00 913.00 L 17.00 1013.00 L 17.00 1113.00 L 466.00 1113.00 L 915.00 1113.00 L 915.00 1013.00 ZM 913.42 907.39 C914.86,906.84 915.00,866.57 915.00,460.89 L 915.00 15.00 L 466.00 15.00 L 17.00 15.00 L 17.00 460.93 C17.00,884.78 17.09,906.88 18.75,907.31 C21.41,908.01 911.61,908.09 913.42,907.39 ZM 0.50 450.00 C0.50,202.23 0.61,100.86 0.75,224.75 C0.89,348.64 0.89,551.36 0.75,675.25 C0.61,799.14 0.50,697.78 0.50,450.00 ZM 355.50 1081.54 C339.76,1077.42 328.30,1071.23 317.69,1061.14 C297.66,1042.09 292.51,1016.90 303.48,991.56 C311.33,973.42 330.65,958.57 354.50,952.33 C363.12,950.07 366.65,949.70 380.00,949.64 C399.03,949.55 405.01,950.86 421.00,958.65 C430.96,963.50 433.53,965.29 440.19,972.03 C446.37,978.29 448.75,981.63 452.36,989.15 C458.46,1001.88 458.86,1003.72 455.77,1004.90 C454.43,1005.41 443.66,1006.15 431.84,1006.55 L 410.35 1007.27 L 407.69 1002.73 C401.02,991.35 391.08,986.46 376.10,987.19 C356.73,988.13 344.65,999.40 344.69,1016.50 C344.73,1032.19 354.28,1042.65 371.75,1046.15 C376.78,1047.16 379.22,1047.15 384.25,1046.12 C399.48,1043.01 406.49,1037.04 409.93,1024.26 C410.56,1021.94 411.84,1019.69 412.78,1019.27 C413.73,1018.85 424.29,1018.63 436.25,1018.79 L 458.00 1019.08 L 458.00 1022.41 C458.00,1026.84 453.63,1040.04 449.76,1047.30 C445.83,1054.68 435.68,1065.69 428.30,1070.59 C410.07,1082.69 378.17,1087.49 355.50,1081.54 ZM 674.72 1082.48 C658.92,1079.49 642.36,1071.39 630.57,1060.90 C624.76,1055.73 617.00,1044.23 613.91,1036.21 C610.87,1028.29 610.11,1011.04 612.41,1002.05 C618.45,978.49 639.30,959.46 666.92,952.32 C683.85,947.95 710.96,948.98 724.50,954.51 C755.69,967.27 773.40,991.67 771.65,1019.50 C770.77,1033.42 766.34,1044.56 757.65,1054.69 C746.00,1068.28 732.93,1076.21 714.08,1081.16 C703.92,1083.82 685.12,1084.45 674.72,1082.48 ZM 707.22 1043.08 C725.75,1034.15 731.39,1012.81 718.95,998.68 C712.80,991.69 703.70,987.59 693.37,987.15 C683.22,986.72 676.41,988.56 669.01,993.73 C661.21,999.17 657.82,1005.11 657.23,1014.34 C656.67,1022.98 658.55,1028.28 664.48,1034.85 C672.18,1043.37 679.41,1046.11 693.00,1045.67 C700.38,1045.43 703.55,1044.85 707.22,1043.08 ZM 40.40 1078.89 C39.07,1077.42 38.92,1070.99 39.19,1028.35 L 39.50 979.50 L 42.65 972.85 C46.72,964.27 52.42,958.65 61.34,954.42 C80.03,945.58 101.95,948.46 116.01,961.60 L 121.07 966.34 L 124.78 962.73 C144.24,943.85 180.04,944.97 194.57,964.93 C201.22,974.06 201.50,976.76 201.50,1031.00 L 201.50 1079.50 L 179.73 1079.77 C162.83,1079.98 157.86,1079.76 157.53,1078.77 C157.30,1078.07 156.96,1057.87 156.78,1033.88 C156.52,999.10 156.18,989.92 155.10,988.63 C153.17,986.29 147.71,986.56 145.40,989.10 C143.60,991.09 143.48,993.56 143.21,1034.84 C143.05,1058.84 142.52,1078.88 142.03,1079.37 C141.55,1079.85 132.06,1080.33 120.96,1080.44 C104.92,1080.58 100.48,1080.34 99.38,1079.24 C98.25,1078.11 98.00,1070.04 98.00,1034.36 C98.00,1006.29 97.63,990.18 96.96,988.93 C95.49,986.17 88.96,986.28 86.40,989.10 C84.60,991.09 84.48,993.56 84.21,1034.84 C84.04,1060.74 83.53,1078.87 82.97,1079.43 C82.43,1079.97 73.20,1080.43 61.97,1080.48 C44.38,1080.56 41.74,1080.37 40.40,1078.89 ZM 231.75 1079.92 C230.11,1078.97 230.00,1074.88 230.00,1016.65 C230.00,969.57 230.29,954.11 231.20,953.20 C232.90,951.50 273.10,951.50 274.80,953.20 C276.38,954.78 276.54,1076.12 274.96,1079.07 C273.99,1080.88 272.69,1081.00 253.71,1080.97 C241.85,1080.95 232.78,1080.52 231.75,1079.92 ZM 482.22 1079.82 C481.29,1078.89 481.00,1063.87 481.00,1015.82 L 481.00 953.04 L 483.51 952.41 C484.90,952.06 501.88,951.99 521.26,952.26 C549.61,952.64 557.63,953.06 562.26,954.36 C597.27,964.21 608.80,998.20 584.87,1021.04 C581.37,1024.39 579.00,1027.49 579.00,1028.74 C579.00,1029.89 584.23,1041.43 590.62,1054.38 C597.28,1067.88 601.99,1078.59 601.65,1079.47 C601.15,1080.78 597.92,1081.00 579.19,1081.00 C553.85,1081.00 556.67,1082.19 549.49,1068.50 C546.89,1063.55 542.33,1054.93 539.36,1049.35 L 533.95 1039.20 L 534.22 1022.85 L 534.50 1006.50 L 539.56 1005.99 C545.90,1005.35 549.50,1003.04 550.94,998.68 C553.61,990.60 548.13,986.74 534.69,987.21 L 526.50 987.50 L 526.00 1034.00 L 525.50 1080.50 L 504.47 1080.77 C488.95,1080.97 483.12,1080.72 482.22,1079.82 ZM 792.09 1079.61 C791.21,1078.54 790.98,1066.47 791.20,1031.84 L 791.50 985.50 L 794.40 978.65 C798.63,968.63 806.13,960.94 816.40,956.08 C827.12,951.00 834.92,949.47 849.50,949.62 C863.16,949.75 871.40,951.52 880.25,956.22 C891.48,962.19 899.14,973.97 900.97,988.05 C902.45,999.42 902.30,1078.30 900.80,1079.80 C899.36,1081.24 860.33,1081.50 858.11,1080.09 C856.95,1079.35 856.74,1072.56 856.90,1039.85 C857.00,1018.21 856.65,998.26 856.13,995.53 C854.94,989.32 852.31,987.00 846.45,987.00 C843.31,987.00 841.34,987.67 839.31,989.41 L 836.50 991.83 L 836.00 1036.16 L 835.50 1080.50 L 814.39 1080.77 C797.07,1080.99 793.06,1080.78 792.09,1079.61 ZM 446.99 851.94 C443.96,851.50 440.13,850.62 438.49,849.99 C435.59,848.89 435.56,848.81 437.48,847.40 C438.57,846.60 441.27,845.48 443.48,844.92 C445.69,844.35 450.88,842.16 455.00,840.05 C459.12,837.93 466.39,835.02 471.15,833.57 C475.91,832.12 480.29,830.35 480.89,829.63 C481.49,828.91 483.89,827.75 486.24,827.05 C488.58,826.35 492.62,824.70 495.22,823.39 C497.81,822.07 500.56,821.00 501.33,821.00 C502.09,821.00 505.37,819.71 508.61,818.14 C516.59,814.25 524.84,810.79 535.00,807.07 C539.67,805.35 545.75,802.88 548.50,801.58 C558.64,796.77 569.76,791.95 579.50,788.13 C601.92,779.35 615.56,773.74 616.67,772.84 C617.32,772.31 620.24,770.96 623.17,769.83 C637.65,764.26 640.87,762.91 645.42,760.55 C648.13,759.15 650.95,758.00 651.70,758.00 C652.45,758.00 655.29,756.88 658.00,755.50 C660.71,754.12 663.56,753.00 664.33,753.00 C665.09,753.00 668.37,751.68 671.61,750.07 C674.85,748.46 684.03,744.63 692.00,741.56 C699.97,738.48 708.79,734.85 711.60,733.48 C714.40,732.12 717.11,731.00 717.61,731.00 C718.11,731.00 720.54,729.93 723.01,728.62 C725.48,727.32 728.93,725.94 730.68,725.56 C732.43,725.18 734.40,724.23 735.05,723.44 C736.39,721.82 739.00,721.50 739.00,722.94 C739.00,727.72 722.44,746.72 703.88,763.25 C671.72,791.89 632.60,815.13 589.50,831.20 C573.65,837.11 547.54,844.35 532.25,847.07 C529.36,847.58 524.41,848.46 521.25,849.02 C501.76,852.49 461.44,854.07 446.99,851.94 ZM 624.51 274.22 C604.44,235.25 571.79,197.73 530.70,166.44 C516.54,155.66 512.60,152.90 502.50,146.67 C493.38,141.04 492.76,140.47 495.44,140.17 C498.91,139.77 514.81,142.46 524.00,145.00 C556.24,153.91 572.53,160.73 594.43,174.49 C619.02,189.92 646.89,215.75 664.32,239.25 C668.25,244.54 665.84,243.91 659.59,238.00 C654.52,233.20 652.00,231.87 652.00,234.00 C652.00,234.55 651.53,235.00 650.96,235.00 C648.92,235.00 645.31,239.56 644.18,243.57 C643.54,245.81 641.65,248.87 639.97,250.37 C638.29,251.86 635.34,255.55 633.42,258.56 C631.49,261.57 629.03,264.59 627.96,265.26 C625.87,266.56 625.34,269.47 627.00,270.50 C627.55,270.84 628.00,272.20 628.00,273.52 C628.00,274.85 628.71,278.01 629.57,280.56 C630.44,283.11 631.00,285.34 630.82,285.52 C630.64,285.70 627.80,280.61 624.51,274.22 ZM 274.69 231.75 C273.84,230.51 271.88,228.06 270.32,226.31 C268.77,224.55 265.04,220.28 262.04,216.81 C254.66,208.29 244.57,199.50 238.50,196.31 C234.54,194.22 232.05,193.67 226.50,193.62 C220.49,193.57 218.68,194.01 213.75,196.69 C210.59,198.40 208.00,199.50 208.00,199.13 C208.00,198.35 224.57,185.43 234.00,178.86 C253.25,165.45 285.63,150.61 315.30,141.60 C335.91,135.34 365.05,129.37 386.21,127.06 C407.60,124.73 435.22,126.16 435.07,129.59 C435.05,130.09 432.32,130.73 429.00,131.00 C422.84,131.51 421.05,132.98 425.19,134.15 C427.26,134.73 427.19,134.81 424.50,134.93 C422.85,135.00 420.63,135.72 419.56,136.53 C418.49,137.34 416.17,138.00 414.39,138.00 C412.62,138.00 410.96,138.56 410.71,139.25 C410.38,140.16 409.78,140.22 408.49,139.46 C407.14,138.67 405.63,138.97 402.19,140.71 C399.70,141.97 396.70,143.00 395.52,143.00 C394.35,143.00 391.86,144.13 389.99,145.50 C388.13,146.88 385.85,147.77 384.94,147.48 C382.67,146.76 380.00,147.91 380.00,149.61 C380.00,150.37 379.20,151.00 378.22,151.00 C377.24,151.00 375.53,151.64 374.42,152.42 C373.30,153.20 369.04,154.15 364.94,154.54 C359.20,155.08 356.93,155.76 355.00,157.53 C353.32,159.08 350.66,160.05 346.86,160.52 C342.27,161.07 340.84,161.72 339.15,164.01 C337.29,166.53 336.26,166.90 329.29,167.54 C320.31,168.36 314.25,170.46 311.75,173.61 C310.57,175.09 308.40,176.03 305.08,176.49 C302.19,176.89 299.44,177.96 298.43,179.08 C297.25,180.38 295.36,181.00 292.60,181.00 C290.34,181.00 286.70,181.88 284.50,182.96 C282.30,184.04 278.81,185.19 276.74,185.51 C274.27,185.89 272.43,186.93 271.38,188.55 C270.12,190.46 268.91,191.00 265.84,191.00 C262.92,191.00 261.23,191.68 259.26,193.65 C256.67,196.24 256.53,196.27 253.68,194.63 C251.45,193.35 250.43,193.23 249.38,194.10 C247.33,195.80 251.23,202.33 259.78,211.50 C262.01,213.89 275.36,230.97 276.39,232.75 C277.64,234.90 276.31,234.12 274.69,231.75 ZM 672.50 122.08 C671.40,121.64 665.33,121.24 659.00,121.20 C646.51,121.12 636.84,120.56 606.50,118.17 C598.80,117.56 579.22,116.17 563.00,115.08 C546.78,113.98 530.12,112.86 526.00,112.58 C521.88,112.30 514.00,111.82 508.50,111.52 C503.00,111.21 496.48,110.53 494.00,110.01 C488.53,108.86 472.20,106.51 458.00,104.83 C451.91,104.11 433.00,103.52 413.00,103.42 C394.02,103.33 372.20,102.78 364.50,102.20 C356.80,101.62 343.98,100.86 336.00,100.52 C303.37,99.13 300.00,98.69 300.00,95.82 C300.00,95.15 302.72,91.95 306.05,88.71 C310.55,84.34 314.72,81.58 322.30,77.96 C333.19,72.76 354.01,65.05 365.50,61.98 C369.35,60.95 374.98,59.37 378.00,58.47 C381.02,57.58 385.08,56.62 387.00,56.35 C388.92,56.09 391.85,55.22 393.50,54.43 C395.15,53.64 401.90,52.27 408.50,51.39 C415.10,50.51 422.75,49.40 425.50,48.94 C435.23,47.31 478.83,46.66 493.50,47.93 C508.73,49.26 533.80,53.16 538.33,54.92 C539.89,55.52 541.50,55.81 541.90,55.56 C542.74,55.04 553.56,58.22 554.63,59.30 C555.02,59.68 556.05,59.99 556.92,59.99 C558.68,59.97 575.22,65.07 584.50,68.49 C611.93,78.61 632.44,88.51 654.09,102.08 C671.47,112.96 684.12,126.71 672.50,122.08 Z" fill="rgb(234,206,153)"/>
<path d="M 10.50 1117.75 C10.20,1116.51 10.08,866.42 10.23,562.00 L 10.50 8.50 L 466.25 8.25 L 922.00 8.00 L 921.75 563.75 L 921.50 1119.50 L 466.27 1119.75 L 11.04 1120.00 L 10.50 1117.75 ZM 915.00 1013.00 L 915.00 913.00 L 466.00 913.00 L 17.00 913.00 L 17.00 1013.00 L 17.00 1113.00 L 466.00 1113.00 L 915.00 1113.00 L 915.00 1013.00 ZM 913.42 907.39 C914.86,906.84 915.00,866.57 915.00,460.89 L 915.00 15.00 L 466.00 15.00 L 17.00 15.00 L 17.00 460.93 C17.00,884.78 17.09,906.88 18.75,907.31 C21.41,908.01 911.61,908.09 913.42,907.39 ZM 355.50 1081.54 C339.76,1077.42 328.30,1071.23 317.69,1061.14 C297.66,1042.09 292.51,1016.90 303.48,991.56 C311.33,973.42 330.65,958.57 354.50,952.33 C363.12,950.07 366.65,949.70 380.00,949.64 C399.03,949.55 405.01,950.86 421.00,958.65 C430.96,963.50 433.53,965.29 440.19,972.03 C446.37,978.29 448.75,981.63 452.36,989.15 C458.46,1001.88 458.86,1003.72 455.77,1004.90 C454.43,1005.41 443.66,1006.15 431.84,1006.55 L 410.35 1007.27 L 407.69 1002.73 C401.02,991.35 391.08,986.46 376.10,987.19 C356.73,988.13 344.65,999.40 344.69,1016.50 C344.73,1032.19 354.28,1042.65 371.75,1046.15 C376.78,1047.16 379.22,1047.15 384.25,1046.12 C399.48,1043.01 406.49,1037.04 409.93,1024.26 C410.56,1021.94 411.84,1019.69 412.78,1019.27 C413.73,1018.85 424.29,1018.63 436.25,1018.79 L 458.00 1019.08 L 458.00 1022.41 C458.00,1026.84 453.63,1040.04 449.76,1047.30 C445.83,1054.68 435.68,1065.69 428.30,1070.59 C410.07,1082.69 378.17,1087.49 355.50,1081.54 ZM 674.72 1082.48 C658.92,1079.49 642.36,1071.39 630.57,1060.90 C624.76,1055.73 617.00,1044.23 613.91,1036.21 C610.87,1028.29 610.11,1011.04 612.41,1002.05 C618.45,978.49 639.30,959.46 666.92,952.32 C683.85,947.95 710.96,948.98 724.50,954.51 C755.69,967.27 773.40,991.67 771.65,1019.50 C770.77,1033.42 766.34,1044.56 757.65,1054.69 C746.00,1068.28 732.93,1076.21 714.08,1081.16 C703.92,1083.82 685.12,1084.45 674.72,1082.48 ZM 707.22 1043.08 C725.75,1034.15 731.39,1012.81 718.95,998.68 C712.80,991.69 703.70,987.59 693.37,987.15 C683.22,986.72 676.41,988.56 669.01,993.73 C661.21,999.17 657.82,1005.11 657.23,1014.34 C656.67,1022.98 658.55,1028.28 664.48,1034.85 C672.18,1043.37 679.41,1046.11 693.00,1045.67 C700.38,1045.43 703.55,1044.85 707.22,1043.08 ZM 40.40 1078.89 C39.07,1077.42 38.92,1070.99 39.19,1028.35 L 39.50 979.50 L 42.65 972.85 C46.72,964.27 52.42,958.65 61.34,954.42 C80.03,945.58 101.95,948.46 116.01,961.60 L 121.07 966.34 L 124.78 962.73 C144.24,943.85 180.04,944.97 194.57,964.93 C201.22,974.06 201.50,976.76 201.50,1031.00 L 201.50 1079.50 L 179.73 1079.77 C162.83,1079.98 157.86,1079.76 157.53,1078.77 C157.30,1078.07 156.96,1057.87 156.78,1033.88 C156.52,999.10 156.18,989.92 155.10,988.63 C153.17,986.29 147.71,986.56 145.40,989.10 C143.60,991.09 143.48,993.56 143.21,1034.84 C143.05,1058.84 142.52,1078.88 142.03,1079.37 C141.55,1079.85 132.06,1080.33 120.96,1080.44 C104.92,1080.58 100.48,1080.34 99.38,1079.24 C98.25,1078.11 98.00,1070.04 98.00,1034.36 C98.00,1006.29 97.63,990.18 96.96,988.93 C95.49,986.17 88.96,986.28 86.40,989.10 C84.60,991.09 84.48,993.56 84.21,1034.84 C84.04,1060.74 83.53,1078.87 82.97,1079.43 C82.43,1079.97 73.20,1080.43 61.97,1080.48 C44.38,1080.56 41.74,1080.37 40.40,1078.89 ZM 231.75 1079.92 C230.11,1078.97 230.00,1074.88 230.00,1016.65 C230.00,969.57 230.29,954.11 231.20,953.20 C232.90,951.50 273.10,951.50 274.80,953.20 C276.38,954.78 276.54,1076.12 274.96,1079.07 C273.99,1080.88 272.69,1081.00 253.71,1080.97 C241.85,1080.95 232.78,1080.52 231.75,1079.92 ZM 482.22 1079.82 C481.29,1078.89 481.00,1063.87 481.00,1015.82 L 481.00 953.04 L 483.51 952.41 C484.90,952.06 501.88,951.99 521.26,952.26 C549.61,952.64 557.63,953.06 562.26,954.36 C597.27,964.21 608.80,998.20 584.87,1021.04 C581.37,1024.39 579.00,1027.49 579.00,1028.74 C579.00,1029.89 584.23,1041.43 590.62,1054.38 C597.28,1067.88 601.99,1078.59 601.65,1079.47 C601.15,1080.78 597.92,1081.00 579.19,1081.00 C553.85,1081.00 556.67,1082.19 549.49,1068.50 C546.89,1063.55 542.33,1054.93 539.36,1049.35 L 533.95 1039.20 L 534.22 1022.85 L 534.50 1006.50 L 539.56 1005.99 C545.90,1005.35 549.50,1003.04 550.94,998.68 C553.61,990.60 548.13,986.74 534.69,987.21 L 526.50 987.50 L 526.00 1034.00 L 525.50 1080.50 L 504.47 1080.77 C488.95,1080.97 483.12,1080.72 482.22,1079.82 ZM 792.09 1079.61 C791.21,1078.54 790.98,1066.47 791.20,1031.84 L 791.50 985.50 L 794.40 978.65 C798.63,968.63 806.13,960.94 816.40,956.08 C827.12,951.00 834.92,949.47 849.50,949.62 C863.16,949.75 871.40,951.52 880.25,956.22 C891.48,962.19 899.14,973.97 900.97,988.05 C902.45,999.42 902.30,1078.30 900.80,1079.80 C899.36,1081.24 860.33,1081.50 858.11,1080.09 C856.95,1079.35 856.74,1072.56 856.90,1039.85 C857.00,1018.21 856.65,998.26 856.13,995.53 C854.94,989.32 852.31,987.00 846.45,987.00 C843.31,987.00 841.34,987.67 839.31,989.41 L 836.50 991.83 L 836.00 1036.16 L 835.50 1080.50 L 814.39 1080.77 C797.07,1080.99 793.06,1080.78 792.09,1079.61 ZM 541.43 840.89 C540.57,839.50 542.78,838.04 545.75,838.02 C548.75,837.99 548.60,839.40 545.45,840.84 C542.33,842.26 542.28,842.26 541.43,840.89 ZM 549.00 838.07 C549.00,836.84 552.69,835.69 554.01,836.50 C554.57,836.85 554.77,837.56 554.46,838.07 C553.71,839.28 549.00,839.28 549.00,838.07 ZM 560.00 834.13 C560.00,832.56 561.00,831.81 564.25,830.95 C566.59,830.33 569.40,828.99 570.50,827.97 C571.61,826.95 576.52,824.75 581.43,823.08 C586.34,821.41 590.82,819.58 591.38,819.02 C591.94,818.46 593.24,818.00 594.26,818.00 C595.29,818.00 598.52,816.87 601.44,815.48 C604.36,814.10 607.40,813.22 608.19,813.52 C608.98,813.82 611.63,812.54 614.08,810.66 C616.53,808.79 619.99,806.94 621.77,806.55 C623.56,806.16 625.00,805.21 625.00,804.42 C625.00,803.48 626.11,803.00 628.25,803.00 C632.15,803.00 637.91,800.80 648.00,795.48 C652.12,793.30 655.84,791.36 656.25,791.17 C656.66,790.99 657.00,791.45 657.00,792.20 C657.00,794.12 640.63,804.65 627.00,811.49 C620.67,814.67 615.05,817.62 614.50,818.05 C613.95,818.48 610.35,820.00 606.50,821.42 C602.65,822.85 597.92,824.83 596.00,825.84 C594.08,826.84 589.80,828.46 586.50,829.44 C583.20,830.41 578.25,832.14 575.50,833.27 C572.75,834.40 568.14,835.52 565.25,835.76 C560.48,836.15 560.00,836.00 560.00,834.13 ZM 527.00 162.88 C519.03,157.35 508.00,150.04 502.50,146.66 C493.38,141.04 492.76,140.47 495.44,140.17 C499.67,139.68 515.81,142.68 528.00,146.21 C533.78,147.89 539.46,149.46 540.63,149.72 C541.80,149.98 544.14,151.45 545.83,152.99 C548.84,155.74 548.86,155.81 546.70,156.46 C545.34,156.88 544.98,157.33 545.76,157.65 C546.45,157.94 546.72,158.65 546.35,159.24 C545.98,159.85 546.16,160.02 546.78,159.64 C548.57,158.53 548.99,160.45 547.87,164.59 C546.52,169.60 545.67,170.43 543.25,169.13 C541.52,168.21 541.32,168.38 541.55,170.54 C541.70,171.89 541.75,172.99 541.66,172.98 C541.57,172.96 534.97,168.42 527.00,162.88 ZM 584.00 79.12 C582.63,78.33 569.23,76.96 558.00,76.46 C526.12,75.05 449.94,70.47 433.50,68.98 C405.72,66.46 398.73,65.97 387.75,65.76 C381.29,65.64 376.00,65.29 376.00,64.99 C376.00,64.00 381.41,61.25 384.74,60.54 C386.52,60.16 388.23,59.43 388.55,58.92 C388.86,58.42 390.78,57.99 392.81,57.99 C394.84,57.98 398.52,57.25 401.00,56.37 C409.45,53.37 432.49,50.84 456.39,50.29 C481.17,49.72 499.26,50.80 520.50,54.13 C541.18,57.38 575.47,66.23 578.45,69.09 C578.97,69.59 580.16,70.00 581.08,70.00 C583.66,70.00 593.48,74.77 595.50,77.00 C597.28,78.97 597.24,79.00 593.40,79.01 C591.26,79.02 588.60,79.24 587.50,79.51 C586.40,79.78 584.83,79.60 584.00,79.12 Z" fill="rgb(253,252,249)"/>
</g>
</svg>